inDegrees=yes
name=teste1.mot
DataType=double
version=3
OpenSimVersion=4.4-2022-07-23-0e9fedc
endheader
time	q1	q2
2.72366714477539	134.6009617083822	-58.24911878064675
2.729666233062744	134.6099992567578	-58.24008123498558
2.733664989471435	134.6713011748106	-58.29682040889423
2.739665031433105	134.6780840535621	-58.29003753649162
2.743669033050537	134.7490144162886	-58.35754719963371
2.749666213989258	134.7539955771126	-58.35256604449378
2.756664037704467	135.4634158647693	-59.05947607663253
2.761667966842651	135.4761066480215	-59.0467852639739
2.765666246414184	136.1324380387086	-59.69669134897443
2.771663904190063	136.1437896523329	-59.6853397187144
2.775665998458862	136.933666594374	-60.46945284215424
2.779836893081665	136.9436730718137	-60.45944631737674
2.785668849945068	137.6166917890262	-61.12737009373441
2.79267406463623	137.63079813251	-61.106927983663
2.798671960830688	138.1330282366807	-61.60220497024734
2.804663181304931	138.8917050829502	-62.36088195771485
2.812668085098266	138.8917050829502	-62.36088195771485
2.81866192817688	139.4700963488807	-62.94483783038141
2.822669982910156	139.4620189161089	-62.95291525331827
2.827683925628662	140.2185470043211	-63.71357219564932
2.831746101379394	140.2185471934634	-63.75765399947764
2.836662054061889	141.208842710978	-64.74795048641606
2.842680215835571	142.203946653255	-65.74305443393717
2.847667932510376	142.2039474358183	-65.90934289101924
2.852675914764404	142.997856295284	-66.7032537846538
2.856667995452881	142.9978577269096	-66.94448548782314
2.861662149429321	143.658968319701	-67.60559878031791
2.866662979125976	143.6589705831532	-67.96751482029336
2.870712995529175	144.3341469666846	-68.64269513918636
2.876677989959717	144.3341499538831	-69.12039709299418
2.883686065673828	145.3101398123771	-70.09639233725976
2.889665126800537	145.3101405871496	-70.25593290867187
2.894665956497192	145.3101450102523	-71.12456015381832
2.898667097091675	146.0294088501303	-71.84383288452921
2.907700061798095	146.0294130379202	-72.51273553138573
2.911661863327026	146.8428057915219	-73.326135422259
2.917669057846069	146.8428101315127	-74.02775357575565
2.921667098999023	147.5142238015984	-74.69917459252888
2.927661180496216	148.0474394864134	-75.23239019969965
2.935667037963867	148.0474403504705	-75.36453696218646
2.943665027618408	148.0474410377132	-75.60339434676119
2.948662042617798	148.5110263923439	-76.06698231762996
2.952656984329223	148.5110275079256	-76.23670253361497
2.956660032272339	148.8379941429215	-76.56367101756808
2.960659980773926	148.8379985571986	-77.26719742709277
2.967658996582031	148.8379991721711	-78.07224671910457
2.977679014205932	148.8379972205745	-78.55379900782251
2.982659816741943	149.1185108221769	-78.83431760077619
2.986663103103637	149.118512328257	-79.06423464736326
2.991661071777343	149.3166911058617	-79.26241586854297
2.995661973953247	149.3166935279411	-79.63933845361279
3.003661155700683	149.53881884832	-79.86146770854491
3.01065993309021	149.5388222718958	-80.40066733601859
3.01966118812561	149.5388244899982	-81.30704537288973
3.024675846099853	150.0043714228813	-81.77260133830167
3.028685808181762	150.0043798272619	-83.1283484025502
3.034680843353271	150.3964086325312	-83.52039015701338
3.038657188415527	150.3964188923654	-85.15832969446394
3.043664932250976	150.7862721773107	-85.54819829384083
3.047657012939453	151.1110484552452	-85.8729745546872
3.0536630153656	151.1110525874394	-86.51607789714875
3.057661056518554	151.5139692245685	-86.91900122276971
3.062682867050171	151.5139760582842	-88.00554218627921
3.067659139633178	153.3044325814873	-89.79601205565719
3.072690010070801	153.3044381838661	-90.9840526905531
3.078660011291504	153.9073042556841	-91.58693056191473
3.082659006118774	153.907311597077	-92.75318235698315
3.090658903121948	153.9073113950047	-93.88185307794305
3.094659805297851	154.3229661142228	-94.29751907553542
3.100661993026733	154.3229730996514	-95.39383957136819
3.105659961700439	154.6472220717683	-95.71809952950318
3.11066198348999	154.6472279289117	-96.62501778615679
3.11565613746643	154.8201088038692	-96.79790795187593
3.120660066604614	154.8201121920824	-97.30635484732898
3.125660896301269	155.1126801196352	-97.59892826140621
3.129657983779907	155.112686161363	-98.51972447470941
3.134659051895141	155.4875946541681	-98.89464256597272
3.139659166336059	155.4876035082762	-100.247372483324
3.144652128219604	155.9910443956823	-100.7508270040618
3.148664236068725	155.9910502028608	-101.6254934044837
3.152664184570312	156.7344569198522	-102.3689095810525
3.157660961151123	156.73445975044	-102.7950759224739
3.163683891296386	157.1895480984015	-103.2501690535797
3.168658018112182	157.1895506974584	-103.6272884812773
3.1756591796875	157.5809301024254	-104.0186721339473
3.179662942886352	157.5809342942524	-104.6361184622729
3.183655023574829	157.8256896354933	-104.880880533269
3.187657117843628	157.825693219976	-105.4043056443123
3.192639112472534	158.008977927081	-105.5875961107404
3.197639942169189	158.00898238462	-106.2447473093647
3.201645135879516	158.0781994175399	-106.3139714642919
3.20564317703247	158.0782015740584	-106.6246068377476
3.209651947021484	158.0538051441286	-106.6002138809645
3.216645956039428	158.0538098841687	-107.3047506628998
3.223658084869384	157.9653854081922	-107.216333763391
3.229655027389526	157.9358043604543	-107.1867527225145
3.234657049179077	157.9358092316552	-107.9050954546946
3.238655090332031	158.1281964573382	-108.0974904911128
3.243658065795898	158.1282024958589	-108.9844926907831
3.24765396118164	158.1282049845016	-110.245877635667
3.2516610622406	158.5044243355136	-110.6221101625377
3.25769305229187	158.5044277931211	-111.1131383968655
3.262647151947021	158.8629132775464	-111.4716294670814
3.268646955490112	158.8629164392232	-111.9182145300304
3.272659063339233	159.0039557930176	-112.0592589541289
3.276656866073608	159.003958245463	-112.4034553310317
3.282655000686645	158.9512482247191	-112.3507492354012
3.287657976150512	158.9512511727884	-112.7707283786825
3.296655893325805	158.9512521164127	-113.3306780937846
3.300657987594604	158.7830684460531	-113.1625006564753
3.305656909942627	158.7830717747719	-113.6408330797913
3.309656143188476	158.6130486374619	-113.4708153032096
3.318657159805298	158.6130510744195	-113.8183759461269
3.323654890060425	158.5160408932979	-113.7213697130386
3.329658985137939	158.5160435489617	-114.100046408135
3.334640026092529	158.4597399510701	-114.0437471041041
3.339675903320312	158.4597422325665	-114.3677353191949
3.345677852630615	158.2856463311351	-114.1936430902874
3.350657224655151	158.2856486540252	-114.5263454876714
3.354651927947998	158.0593216013819	-114.3000221848742
3.35865306854248	158.0593234389217	-114.5628185250342
3.362671852111816	157.7477560245112	-114.2512540672303
3.366663932800293	157.7477598068876	-114.8010507119123
3.372686862945556	157.4439302773162	-114.4972272536706
3.378659009933471	157.4439343225241	-115.0862712569523
3.383666038513183	157.0923437897971	-114.7346871984593
3.388675212860107	157.0923465677933	-115.1345299744464
3.394653081893921	156.7239580243571	-114.7661458870512
3.398661851882934	156.7239633011566	-115.5397172996658
3.404658079147339	156.2377487246574	-115.0535110640219
3.408658981323242	156.2377534811231	-115.7436924204301
3.413656949996948	156.1243369758482	-115.6302835239205
3.420660018920898	156.1243405202508	-116.138394339106
3.424704074859619	155.9908758934615	-116.0049354182922
3.430651903152466	155.9908795406455	-116.527181467
3.437655210494995	155.7903573251615	-116.3266651122667
3.444707870483398	155.7903594664555	-116.6289943384263
3.448657035827636	155.4821373389132	-116.3207756521003
3.454655170440674	155.4821390767399	-116.5654740634412
3.45864987373352	155.1174178151207	-116.2007555841145
3.463650941848755	155.1174195916024	-116.4503180600187
3.468653202056884	154.7984187794002	-116.1313201023473
3.473659038543701	154.7984207378641	-116.4062858197925
3.480649948120117	154.6314845603273	-116.2393528207095
3.484684228897094	154.6314873725995	-116.6346990046971
3.490683078765869	154.6040909521735	-116.6073071405384
